<svg width="26" height="26" viewBox="0 0 26 26" fill="none" xmlns="http://www.w3.org/2000/svg">
<path fill-rule="evenodd" clip-rule="evenodd" d="M12.8545 2V19.6336C12.7037 19.6336 12.5529 19.679 12.4236 19.7697L7.09265 23.5113C6.52961 23.9065 5.77602 23.3985 5.93109 22.7283L7.52832 15.8257C7.59277 15.5472 7.49329 15.2562 7.27182 15.0755L2.27661 10.9992C1.76829 10.5843 2.00003 9.76286 2.65021 9.67486L9.11433 8.79998C9.37816 8.76427 9.60329 8.59137 9.70585 8.34567L12.1624 2.46108C12.2907 2.15369 12.5726 2 12.8545 2Z" fill="#BFCC94"/>
<path d="M12.8545 2H13.3545C13.3545 1.72386 13.1306 1.5 12.8545 1.5L12.8545 2ZM12.8545 19.6336V20.1336C13.1306 20.1336 13.3545 19.9098 13.3545 19.6336H12.8545ZM12.4236 19.7697L12.7109 20.179L12.7109 20.179L12.4236 19.7697ZM7.09265 23.5113L6.80541 23.1021L6.80541 23.1021L7.09265 23.5113ZM5.93109 22.7283L6.41822 22.8411L6.41822 22.8411L5.93109 22.7283ZM7.52832 15.8257L7.0412 15.7129L7.52832 15.8257ZM7.27182 15.0755L7.58794 14.6881L7.58794 14.6881L7.27182 15.0755ZM2.27661 10.9992L2.59274 10.6118L2.59274 10.6118L2.27661 10.9992ZM2.65021 9.67486L2.58315 9.17938L2.58315 9.17938L2.65021 9.67486ZM9.11433 8.79998L9.18139 9.29546L9.18139 9.29546L9.11433 8.79998ZM9.70585 8.34567L9.24444 8.15306L9.24444 8.15306L9.70585 8.34567ZM12.1624 2.46108L11.701 2.26846L11.701 2.26846L12.1624 2.46108ZM12.3545 2V19.6336H13.3545V2H12.3545ZM12.8545 19.1336C12.6034 19.1336 12.3518 19.2093 12.1364 19.3605L12.7109 20.179C12.754 20.1487 12.804 20.1336 12.8545 20.1336V19.1336ZM12.1364 19.3605L6.80541 23.1021L7.37989 23.9206L12.7109 20.179L12.1364 19.3605ZM6.80541 23.1021C6.61773 23.2338 6.36653 23.0645 6.41822 22.8411L5.44396 22.6156C5.18551 23.7326 6.4415 24.5792 7.37989 23.9206L6.80541 23.1021ZM6.41822 22.8411L8.01545 15.9384L7.0412 15.7129L5.44396 22.6156L6.41822 22.8411ZM8.01545 15.9384C8.12286 15.4742 7.95707 14.9894 7.58794 14.6881L6.95569 15.4629C7.02952 15.5231 7.06268 15.6201 7.0412 15.7129L8.01545 15.9384ZM7.58794 14.6881L2.59274 10.6118L1.96049 11.3865L6.95569 15.4629L7.58794 14.6881ZM2.59274 10.6118C2.4233 10.4735 2.50054 10.1997 2.71727 10.1703L2.58315 9.17938C1.49952 9.32605 1.11328 10.6952 1.96049 11.3865L2.59274 10.6118ZM2.71727 10.1703L9.18139 9.29546L9.04727 8.30449L2.58315 9.17938L2.71727 10.1703ZM9.18139 9.29546C9.62111 9.23594 9.99632 8.94777 10.1673 8.53829L9.24444 8.15306C9.21025 8.23496 9.13521 8.29259 9.04727 8.30449L9.18139 9.29546ZM10.1673 8.53829L12.6238 2.65369L11.701 2.26846L9.24444 8.15306L10.1673 8.53829ZM12.6238 2.65369C12.6669 2.55035 12.7542 2.5 12.8545 2.5L12.8545 1.5C12.391 1.5 11.9144 1.75704 11.701 2.26846L12.6238 2.65369Z" fill="#BFCC94"/>
<path d="M12.3079 2.74131C12.5645 2.12654 13.4355 2.12654 13.6921 2.74131L16.1486 8.62591C16.2512 8.8716 16.4763 9.0445 16.7401 9.08021L23.2042 9.9551C23.8544 10.0431 24.0862 10.8646 23.5778 11.2794L18.5825 15.3557C18.361 15.5365 18.2615 15.8274 18.326 16.1059L19.9233 23.0085C20.0784 23.6787 19.3248 24.1867 18.7618 23.7915L13.4309 20.05C13.1723 19.8685 12.8277 19.8685 12.5691 20.05L7.23816 23.7915C6.67513 24.1867 5.92154 23.6787 6.07661 23.0086L7.67384 16.1059C7.73829 15.8274 7.63881 15.5365 7.41734 15.3558L2.42213 11.2794C1.9138 10.8646 2.14555 10.0431 2.79572 9.9551L9.25985 9.08021C9.52368 9.0445 9.74881 8.8716 9.85137 8.62591L12.3079 2.74131Z" stroke-width="2" stroke-miterlimit="3.3292" stroke-linecap="round" stroke-linejoin="round"/>
</svg>
